<mxfile host="app.diagrams.net" modified="2024-04-29T07:55:24.288Z" agent="Mozilla/5.0 (Macintosh; Intel Mac OS X 10_15_7) AppleWebKit/537.36 (KHTML, like Gecko) Chrome/124.0.0.0 Safari/537.36" version="24.0.7" etag="yNmcSX4zF0mHKVlU1RDj" type="github">
  <diagram name="第 1 页" id="f50cWnhNKc0xasic3wzm">
    <mxGraphModel>
      <root>
        <mxCell id="0" />
        <mxCell id="1" parent="0" />
      </root>
    </mxGraphModel>
  </diagram>
</mxfile>
